C:\Users\r0593348\3dpredictsim\Results\Batchsim_tmt_linear\Pog_s1_tmt_aCst_d02_k500_ig24_pas_GRF.mot
nRows=17
nColumns=19

name C:\Users\r0593348\3dpredictsim\Results\Batchsim_tmt_linear\Pog_s1_tmt_aCst_d02_k500_ig24_pas_GRF.mot
datacolumns 19
datarows 17
range 0.0000000000 0.1779025739
endheader
time 	ground_force_vx	ground_force_vy	ground_force_vz	ground_force_px	ground_force_py	ground_force_pz	1_ground_force_vx	1_ground_force_vy	1_ground_force_vz	1_ground_force_px	1_ground_force_py	1_ground_force_pz	ground_torque_x	ground_torque_y	ground_torque_z	1_ground_torque_x	1_ground_torque_y	1_ground_torque_z
        0.0000000000	      -87.9587583294	       86.0865943687	       45.1480267822	        0.1716843658	        0.0000000000	        0.0370576968	       94.5210446149	      474.3052008631	       -5.3100639472	       -0.3202798152	        0.0000000000	       -0.0342133208	        0.0000000000	        0.0000000000	        0.0000000000	        0.0000000000	        0.0000000000	        0.0000000000	
        0.0111189109	      -84.0623853227	      183.1688004980	       82.8001203539	        0.1773569376	        0.0000000000	        0.0351350673	       76.1499933512	      389.9764642980	      -11.2523764441	       -0.3161283358	        0.0000000000	       -0.0330623304	        0.0000000000	        0.0000000000	        0.0000000000	        0.0000000000	        0.0000000000	        0.0000000000	
        0.0222378217	      -44.9579732878	      338.2330490280	       19.5952710005	        0.1811779358	        0.0000000000	        0.0331109141	       55.5292732103	      301.2202444194	       -8.6732811126	       -0.3096405588	        0.0000000000	       -0.0305832393	        0.0000000000	        0.0000000000	        0.0000000000	        0.0000000000	        0.0000000000	        0.0000000000	
        0.0333567326	      -47.5986380319	      503.7367662408	       -0.5950721380	        0.1859409771	        0.0000000000	        0.0338436803	       28.5705008114	      200.5776352738	       -6.6131015389	       -0.2971543198	        0.0000000000	       -0.0250608865	        0.0000000000	        0.0000000000	        0.0000000000	        0.0000000000	        0.0000000000	        0.0000000000	
        0.0444756435	      -83.6618983947	      684.6854526726	       -8.2082248683	        0.1941265221	        0.0000000000	        0.0363576080	        8.5489875151	      139.6512814490	      -10.9565443777	       -0.2835166834	        0.0000000000	       -0.0180733887	        0.0000000000	        0.0000000000	        0.0000000000	        0.0000000000	        0.0000000000	        0.0000000000	
        0.0555945543	     -107.2181458249	      801.8802586113	      -12.0076568868	        0.1999314497	        0.0000000000	        0.0380358842	        1.1571604020	      110.6944744725	      -12.0521704575	       -0.2837340599	        0.0000000000	       -0.0183944083	        0.0000000000	        0.0000000000	        0.0000000000	        0.0000000000	        0.0000000000	        0.0000000000	
        0.0667134652	     -112.4673782540	      845.2348353435	      -13.0537738886	        0.2039094484	        0.0000000000	        0.0390534120	       -2.3383710658	       72.5367033274	      -10.9586409038	       -0.2832086499	        0.0000000000	       -0.0184385850	        0.0000000000	        0.0000000000	        0.0000000000	        0.0000000000	        0.0000000000	        0.0000000000	
        0.0778323761	     -107.8181549241	      842.5254477003	      -13.2652692208	        0.2069912002	        0.0000000000	        0.0396552639	       -8.0135826967	       30.2223701646	       -5.9934122351	       -0.2834431314	        0.0000000000	       -0.0182763860	        0.0000000000	        0.0000000000	        0.0000000000	        0.0000000000	        0.0000000000	        0.0000000000	
        0.0889512869	      -98.5219927447	      823.6202038738	      -13.7418605271	        0.2100513104	        0.0000000000	        0.0399750906	        0.0839564076	       -0.0830366030	        0.0018441614	        0.0000000000	        0.0000000000	        0.0000000000	        0.0000000000	        0.0000000000	        0.0000000000	        0.0000000000	        0.0000000000	        0.0000000000	
        0.1000701978	      -86.2906747274	      794.3002957979	      -14.5311020561	        0.2132883723	        0.0000000000	        0.0401170883	        0.0000795690	       -0.0000644110	       -0.0000046180	        0.0000000000	        0.0000000000	        0.0000000000	        0.0000000000	        0.0000000000	        0.0000000000	        0.0000000000	        0.0000000000	        0.0000000000	
        0.1111891087	      -74.4405260520	      759.3593860990	      -14.8727183882	        0.2168727544	        0.0000000000	        0.0401847527	        0.0000397491	       -0.0000280395	       -0.0000029646	        0.0000000000	        0.0000000000	        0.0000000000	        0.0000000000	        0.0000000000	        0.0000000000	        0.0000000000	        0.0000000000	        0.0000000000	
        0.1223080195	      -64.6837703171	      727.8452303469	      -15.0058647863	        0.2211648183	        0.0000000000	        0.0401341195	        0.0004388733	       -0.0002774607	       -0.0000364849	        0.0000000000	        0.0000000000	        0.0000000000	        0.0000000000	        0.0000000000	        0.0000000000	        0.0000000000	        0.0000000000	        0.0000000000	
        0.1334269304	      -55.2065492870	      697.8499100394	      -15.5432242062	        0.2256049611	        0.0000000000	        0.0400452786	        0.0049698686	       -0.0028790799	       -0.0004362038	        0.0000000000	        0.0000000000	        0.0000000000	        0.0000000000	        0.0000000000	        0.0000000000	        0.0000000000	        0.0000000000	        0.0000000000	
        0.1445458413	      -45.9199588904	      669.0574863422	      -16.0701689975	        0.2299636241	        0.0000000000	        0.0400056927	       -0.0269804996	        0.0145256969	        0.0024626724	        0.0000000000	        0.0000000000	        0.0000000000	        0.0000000000	        0.0000000000	        0.0000000000	        0.0000000000	        0.0000000000	        0.0000000000	
        0.1556647521	      -37.9183339122	      643.6493768418	      -16.6085010489	        0.2343719242	        0.0000000000	        0.0400158465	       -0.0186745960	        0.0094487577	        0.0017574951	        0.0000000000	        0.0000000000	        0.0000000000	        0.0000000000	        0.0000000000	        0.0000000000	        0.0000000000	        0.0000000000	        0.0000000000	
        0.1667836630	      -31.3049613838	      622.5892879753	      -17.2897986859	        0.2388031009	        0.0000000000	        0.0400526347	       -0.0133948409	        0.0064267538	        0.0012929821	        0.0000000000	        0.0000000000	        0.0000000000	        0.0000000000	        0.0000000000	        0.0000000000	        0.0000000000	        0.0000000000	        0.0000000000	
        0.1779025739	      -25.6731771856	      606.0307766385	      -17.8482205091	        0.2433821026	        0.0000000000	        0.0401030369	       -0.0125642859	        0.0057596003	        0.0012358739	        0.0000000000	        0.0000000000	        0.0000000000	        0.0000000000	        0.0000000000	        0.0000000000	        0.0000000000	        0.0000000000	        0.0000000000	
